<svg width="520" height="520" viewBox="0 0 520 520" fill="none" xmlns="http://www.w3.org/2000/svg">
<path d="M388 4H132C61.3075 4 4 61.3075 4 132V388C4 458.692 61.3075 516 132 516H388C458.692 516 516 458.692 516 388V132C516 61.3075 458.692 4 388 4Z" fill="#080808" stroke="#1C1C1C" stroke-width="8"/>
<path d="M388 28H132C74.5624 28 28 74.5624 28 132V388C28 445.438 74.5624 492 132 492H388C445.438 492 492 445.438 492 388V132C492 74.5624 445.438 28 388 28Z" stroke="#222222" stroke-width="6"/>
<path d="M260 100C294.051 99.947 327.23 110.758 354.713 130.861C382.196 150.965 402.548 179.311 412.81 211.779C423.073 244.246 422.709 279.14 411.774 311.387C400.838 343.634 379.899 371.55 352.004 391.077C324.109 410.604 290.711 420.722 256.669 419.96C222.627 419.198 189.716 407.595 162.723 386.84C135.729 366.085 116.061 337.259 106.579 304.555C97.0968 271.852 98.2953 236.976 110 205" stroke="url(#paint0_linear_192_598)" stroke-width="28" stroke-linecap="round"/>
<path d="M72.2149 192.063C68.7565 190.067 68.919 185.021 72.4988 183.251L137.506 151.109C140.704 149.527 144.482 151.708 144.712 155.269L149.379 227.638C149.636 231.623 145.348 234.287 141.89 232.29L72.2149 192.063Z" fill="url(#paint1_linear_192_598)"/>
<path d="M328 207H192C185.373 207 180 212.373 180 219V301C180 307.627 185.373 313 192 313H328C334.627 313 340 307.627 340 301V219C340 212.373 334.627 207 328 207Z" fill="#121212" stroke="url(#paint2_linear_192_598)" stroke-width="12"/>
<path d="M224 226H204C201.791 226 200 227.791 200 230V242C200 244.209 201.791 246 204 246H224C226.209 246 228 244.209 228 242V230C228 227.791 226.209 226 224 226Z" fill="url(#paint3_linear_192_598)"/>
<path d="M252 262H204C201.791 262 200 263.791 200 266C200 268.209 201.791 270 204 270H252C254.209 270 256 268.209 256 266C256 263.791 254.209 262 252 262Z" fill="url(#paint4_linear_192_598)" fill-opacity="0.3"/>
<path d="M292 262H268C265.791 262 264 263.791 264 266C264 268.209 265.791 270 268 270H292C294.209 270 296 268.209 296 266C296 263.791 294.209 262 292 262Z" fill="url(#paint5_linear_192_598)" fill-opacity="0.3"/>
<path d="M296 292C301.523 292 306 287.523 306 282C306 276.477 301.523 272 296 272C290.477 272 286 276.477 286 282C286 287.523 290.477 292 296 292Z" fill="url(#paint6_linear_192_598)" fill-opacity="0.8"/>
<path d="M308 292C313.523 292 318 287.523 318 282C318 276.477 313.523 272 308 272C302.477 272 298 276.477 298 282C298 287.523 302.477 292 308 292Z" fill="url(#paint7_linear_192_598)" fill-opacity="0.4"/>
<defs>
<linearGradient id="paint0_linear_192_598" x1="4.00016" y1="4.00019" x2="516" y2="516" gradientUnits="userSpaceOnUse">
<stop stop-color="#03DAC6"/>
<stop offset="1" stop-color="#01A896"/>
</linearGradient>
<linearGradient id="paint1_linear_192_598" x1="-138.487" y1="399.531" x2="728.238" y2="167.293" gradientUnits="userSpaceOnUse">
<stop stop-color="#03DAC6"/>
<stop offset="1" stop-color="#01A896"/>
</linearGradient>
<linearGradient id="paint2_linear_192_598" x1="4" y1="4" x2="516" y2="516" gradientUnits="userSpaceOnUse">
<stop stop-color="#03DAC6"/>
<stop offset="1" stop-color="#01A896"/>
</linearGradient>
<linearGradient id="paint3_linear_192_598" x1="4" y1="4" x2="516" y2="516" gradientUnits="userSpaceOnUse">
<stop stop-color="#03DAC6"/>
<stop offset="1" stop-color="#01A896"/>
</linearGradient>
<linearGradient id="paint4_linear_192_598" x1="4" y1="4" x2="516" y2="516" gradientUnits="userSpaceOnUse">
<stop stop-color="#03DAC6"/>
<stop offset="1" stop-color="#01A896"/>
</linearGradient>
<linearGradient id="paint5_linear_192_598" x1="4" y1="4" x2="516" y2="516" gradientUnits="userSpaceOnUse">
<stop stop-color="#03DAC6"/>
<stop offset="1" stop-color="#01A896"/>
</linearGradient>
<linearGradient id="paint6_linear_192_598" x1="4" y1="4" x2="516" y2="516" gradientUnits="userSpaceOnUse">
<stop stop-color="#03DAC6"/>
<stop offset="1" stop-color="#01A896"/>
</linearGradient>
<linearGradient id="paint7_linear_192_598" x1="4" y1="4" x2="516" y2="516" gradientUnits="userSpaceOnUse">
<stop stop-color="#03DAC6"/>
<stop offset="1" stop-color="#01A896"/>
</linearGradient>
</defs>
</svg>
